# AST/ASF file generated using VICON BodyLanguage
# -----------------------------------------------
:version 1.10
:name VICON
:units
  mass 1.0
  length 0.45
  angle deg
:documentation
   .ast/.asf automatically generated from VICON data using
   VICON BodyBuilder and BodyLanguage model FoxedUp or BRILLIANT.MOD
:root
   order TX TY TZ RX RY RZ
   axis XYZ
   position 0 0 0  
   orientation 0 0 0 
:bonedata
  begin
     id 1 
     name lhipjoint
     direction 0.711131 -0.61297 0.344326 
     length 2.29162 
     axis 0 0 0  XYZ
  end
  begin
     id 2 
     name lfemur
     direction 0.34202 -0.939693 0  
     length 6.71424  
     axis 0 0 20  XYZ
    dof rx ry rz
    limits (-160.0 20.0)
           (-70.0 70.0)
           (-60.0 70.0)
  end
  begin
     id 3 
     name ltibia
     direction 0.34202 -0.939693 0   
     length 6.7087   
     axis 0 0 20   XYZ
    dof rx
    limits (-10.0 170.0)
  end
  begin
     id 4 
     name lfoot
     direction 0.0230374 -0.0632947 0.997729   
     length 1.56743   
     axis -90 7.62852e-016 20   XYZ
    dof rx rz
    limits (-45.0 90.0)
           (-70.0 20.0)
  end
  begin
     id 5 
     name ltoes
     direction 1.53585e-011 -4.21885e-011 1   
     length 0.802914   
     axis -90 7.62852e-016 20   XYZ
    dof rx
    limits (-90.0 20.0)
  end
  begin
     id 6 
     name rhipjoint
     direction -0.733192 -0.592884 0.333043   
     length 2.36925  
     axis 0 0 0  XYZ 
  end
  begin
     id 7 
     name rfemur
     direction -0.34202 -0.939693 0   
     length 6.67027   
     axis 0 0 -20   XYZ
    dof rx ry rz
    limits (-160.0 20.0)
           (-70.0 70.0)
           (-70.0 60.0)
  end
  begin
     id 8 
     name rtibia
     direction -0.34202 -0.939693 0   
     length 6.6862   
     axis 0 0 -20   XYZ
    dof rx
    limits (-10.0 170.0)
 end
 begin
     id 9 
     name rfoot
     direction -0.0949739 -0.260939 0.960672   
     length 1.67698  
     axis -90 -7.62852e-016 -20   XYZ
    dof rx rz
    limits (-45.0 90.0)
           (-20.0 70.0)
  end
  begin
     id 10 
     name rtoes
     direction -1.5353e-011 -4.21868e-011 1   
     length 0.846298   
     axis -90 -7.62852e-016 -20   XYZ
    dof rx
    limits (-90.0 20.0)
  end
  begin
     id 11 
     name lowerback
     direction -0.0206828 0.999785 -0.00109866   
     length 2.04382   
     axis 0 0 0   XYZ
    dof rx ry rz
    limits (-20.0 45.0)
           (-30.0 30.0)
           (-30.0 30.0)
  end
  begin
     id 12 
     name upperback
     direction -0.0105003 0.999727 -0.0208904   
     length 2.04538   
     axis 0 0 0   XYZ
    dof rx ry rz
    limits (-20.0 45.0)
           (-30.0 30.0)
           (-30.0 30.0)
  end
  begin
     id 13 
     name thorax
     direction -0.000416255 0.999808 -0.0196023   
     length 2.0399   
     axis 0 0 0   XYZ
    dof rx ry rz
    limits (-20.0 45.0)
           (-30.0 30.0)
           (-30.0 30.0)
  end
  begin
     id 14 
     name lowerneck
     direction 0.0627861 0.989205 0.13241   
     length 1.46207   
     axis 0 0 0   XYZ
    dof rx ry rz
    limits (-20.0 45.0)
           (-30.0 30.0)
           (-30.0 30.0)
  end
  begin
     id 15 
     name upperneck
     direction 0.00627179 0.994526 0.104303   
     length 1.41419   
     axis 0 0 0   XYZ
    dof rx ry rz
    limits (-20.0 45.0)
           (-30.0 30.0)
           (-30.0 30.0)
  end
  begin
     id 16
     name head
     direction -0.00443838 0.999688 0.0245968  
     length 1.50718  
     axis 0 0 0   XYZ
    dof rx ry rz
    limits (-20.0 45.0)
           (-30.0 30.0)
           (-30.0 30.0)
  end
  begin
     id 17 
     name lclavicle
     direction 0.758742 0.650995 -0.0227258  
     length 2.86888  
     axis 0 0 0   XYZ
    dof ry rz
    limits (-20.0 10.0)
           (0.0 20.0)
  end
  begin
     id 18 
     name lhumerus
     direction 1 -4.48962e-011 1.06664e-027   
     length 4.65776   
     axis -180 -30 -90   XYZ
    dof rx ry rz
    limits (-60.0 90.0)
           (-90.0 90.0)
           (-90.0 90.0)
  end
  begin
     id 19
     name lradius
     direction 1 -4.48968e-011 1.40404e-026   
     length 3.55539   
     axis -180 -30 -90   XYZ
    dof rx
    limits (-10.0 170.0)
  end
  begin
     id 20
     name lwrist
     direction 1 -4.48976e-011 3.32647e-026   
     length 1.77769   
     axis -2.20186e-014 90 90   XYZ
    dof ry
    limits (-180.0 0.0)
 end
  begin
     id 21 
     name lhand
     direction 1 -4.48982e-011 6.65293e-026   
     length 0.707264   
     axis -4.24514e-014 90 90   XYZ
    dof rx rz
    limits (-90.0 90.0)
           (-45.0 45.0)
  end
  begin
     id 22 
     name lfingers
     direction 1 -4.48966e-011 1.33059e-025   
     length 0.570215   
     axis -8.49028e-014 90 90   XYZ
    dof rx
    limits (0.0 90.0)
  end
  begin
     id 23
     name lthumb
     direction 0.707107 -6.3493e-011 0.707107   
     length 0.818718   
     axis -90 45 2.85299e-015   XYZ
    dof rx rz
    limits (-45.0 45.0)
           (-45.0 45.0)
  end
  begin
     id 24 
     name rclavicle
     direction -0.870343 0.482028 -0.100759   
     length 3.2251  
     axis 0 0 0   XYZ 
    dof ry rz
    limits (-10.0 20.0)
           (-20.0 0.0)
  end
  begin
     id 25 
     name rhumerus
     direction -1 -4.48974e-011 -9.45849e-028  
     length 4.71925   
     axis -180 30 90   XYZ
    dof rx ry rz
    limits (-90.0 60.0)
           (-90.0 90.0)
           (-90.0 90.0)
  end
  begin
     id 26 
     name rradius
     direction -1 -4.48965e-011 1.17607e-026   
     length 3.5699   
     axis -180 30 90   XYZ
    dof rx
    limits (-10.0 170.0)
  end
  begin
     id 27 
     name rwrist
     direction -1 -4.48968e-011 3.32647e-026   
     length 1.78495   
     axis -2.20186e-014 -90 -90   XYZ
    dof ry
    limits (-180.0 0.0)
  end
  begin
     id 28
     name rhand
     direction -1 -4.48995e-011 6.65293e-026   
     length 0.507757   
     axis -4.24514e-014 -90 -90   XYZ
    dof rx rz
    limits (-90.0 90.0)
           (-45.0 45.0)
  end
  begin
     id 29
     name rfingers
     direction -1 -4.48864e-011 1.33059e-025   
     length 0.409367   
     axis -8.49028e-014 -90 -90   XYZ
    dof rx
    limits (0.0 90.0)
  end
  begin
     id 30
     name rthumb
     direction -0.707107 -6.3494e-011 0.707107   
     length 0.587771   
     axis -90 -45 -2.85299e-015   XYZ
    dof rx rz
    limits (-45.0 45.0)
           (-45.0 45.0)
  end
:hierarchy
  begin
    root lhipjoint rhipjoint lowerback
    lhipjoint lfemur
    lfemur ltibia
    ltibia lfoot
    lfoot ltoes
    rhipjoint rfemur
    rfemur rtibia
    rtibia rfoot
    rfoot rtoes
    lowerback upperback
    upperback thorax
    thorax lowerneck lclavicle rclavicle
    lowerneck upperneck
    upperneck head
    lclavicle lhumerus
    lhumerus lradius
    lradius lwrist
    lwrist lhand lthumb
    lhand lfingers
    rclavicle rhumerus
    rhumerus rradius
    rradius rwrist
    rwrist rhand rthumb
    rhand rfingers
  end

#!OML:ASF E:\Steps\Project 1\Capture day 1\Session 2\Subject.ASF
:FULLY-SPECIFIED
:DEGREES
64
root 7.09359 16.2872 31.5943 -154.167 -0.658256 178.326
lowerback -28.7211 -1.25446 -6.60582
upperback -1.82472 -0.190027 -0.430195
thorax 13.1325 -0.756472 2.98711
lowerneck -5.81481 -3.13099 -2.53415
upperneck 8.73564 -4.9485 7.43991
head 3.80593 -2.28542 2.41873
rclavicle -3.97569e-016 -2.3059e-014
rhumerus -39.6377 -20.3362 -77.3803
rradius 34.0554
rwrist -2.87082
rhand -5.95218 -53.3552
rfingers 7.12502
rthumb 19.8783 -82.3586
lclavicle -3.97569e-016 -2.3059e-014
lhumerus -31.0841 9.52157 79.3261
lradius 23.6392
lwrist -3.1199
lhand -21.1284 -13.5246
lfingers 7.12502
lthumb 5.25035 16.3904
rfemur -23.1311 4.80243 21.2009
rtibia 6.34085
rfoot -18.9585 -6.10551
rtoes -27.9588
lfemur -24.4618 -10.1294 -19.6005
ltibia 9.46833
lfoot -8.36831 -0.0915978
ltoes -29.9275
65
root 7.09438 16.2875 31.595 -154.208 -0.674893 178.265
lowerback -28.6341 -1.26404 -6.60905
upperback -1.87808 -0.211858 -0.47513
thorax 13.033 -0.764387 2.93264
lowerneck -5.83344 -3.18431 -2.40864
upperneck 8.97638 -5.0326 7.23585
head 3.87799 -2.32901 2.32978
rclavicle 6.80837e-015 -2.3059e-014
rhumerus -39.7178 -20.173 -77.5116
rradius 34.2759
rwrist -3.07394
rhand -5.75994 -53.1957
rfingers 7.12502
rthumb 20.0631 -82.1798
lclavicle 6.80837e-015 -2.3059e-014
lhumerus -31.1856 9.51366 79.2602
lradius 23.6892
lwrist -3.15156
lhand -21.3839 -13.3444
lfingers 7.12502
lthumb 5.00368 16.5765
rfemur -23.0893 4.79326 21.1414
rtibia 6.3173
rfoot -18.9232 -6.15781
rtoes -28.1491
lfemur -24.4109 -10.1976 -19.6793
ltibia 9.46444
lfoot -8.39083 -0.120136
ltoes -30.242
66
root 7.09856 16.2889 31.5993 -154.204 -0.695073 178.193
lowerback -28.5758 -1.29348 -6.71643
upperback -1.91218 -0.225531 -0.482837
thorax 12.9671 -0.775538 2.97761
lowerneck -5.74908 -3.26852 -2.23013
upperneck 9.04314 -5.14013 6.97355
head 3.87837 -2.38846 2.21575
rclavicle -5.51627e-015 -1.35174e-014
rhumerus -39.7402 -20.1383 -77.5299
rradius 34.4384
rwrist -3.20545
rhand -5.43732 -52.7108
rfingers 7.12502
rthumb 20.3732 -81.6621
lclavicle -5.51627e-015 -1.35174e-014
lhumerus -31.2062 9.45566 79.2849
lradius 23.7075
lwrist -3.15326
lhand -21.4047 -13.4143
lfingers 7.12502
lthumb 4.98363 16.5071
rfemur -23.0875 4.9026 21.0658
rtibia 6.24777
rfoot -18.8739 -6.3509
rtoes -28.2314
lfemur -24.4376 -10.0972 -19.7679
ltibia 9.47658
lfoot -8.38851 -0.303552
ltoes -28.9157
67
root 7.09829 16.2907 31.5991 -154.258 -0.689411 178.167
lowerback -28.5415 -1.28365 -6.72059
upperback -1.89559 -0.206856 -0.504273
thorax 12.9684 -0.765718 2.96443
lowerneck -5.61518 -3.29066 -2.31034
upperneck 8.53138 -5.13193 6.93682
head 4.10761 -2.41784 2.47225
rclavicle 7.45443e-015 -1.39149e-014
rhumerus -39.6542 -20.2178 -77.5537
rradius 34.4554
rwrist -3.17051
rhand -5.45329 -52.5807
rfingers 7.12502
rthumb 20.3578 -81.5337
lclavicle 7.45443e-015 -1.39149e-014
lhumerus -31.1907 9.30691 79.3232
lradius 23.7216
lwrist -3.05761
lhand -21.4128 -13.4635
lfingers 7.12502
lthumb 4.97575 16.4581
rfemur -23.0102 5.07447 20.9761
rtibia 6.24238
rfoot -18.8772 -6.59128
rtoes -28.4023
lfemur -24.3631 -10.2809 -19.7533
ltibia 9.40646
lfoot -8.3923 -0.175761
ltoes -27.7251
68
root 7.09841 16.2888 31.5984 -154.204 -0.660877 178.182
lowerback -28.6141 -1.27332 -6.683
upperback -1.91835 -0.207222 -0.507451
thorax 12.9757 -0.766358 2.93898
lowerneck -5.59198 -3.29439 -2.27393
upperneck 8.40719 -5.11904 6.87581
head 4.05393 -2.41251 2.4445
rclavicle 1.2424e-015 9.54166e-015
rhumerus -39.598 -20.1868 -77.6262
rradius 34.4831
rwrist -3.15271
rhand -5.76488 -52.8994
rfingers 7.12502
rthumb 20.0584 -81.884
lclavicle 1.2424e-015 9.54166e-015
lhumerus -31.2103 9.24475 79.3221
lradius 23.7264
lwrist -3.02524
lhand -21.3852 -13.3574
lfingers 7.12502
lthumb 5.00246 16.5635
rfemur -23.066 5.15532 20.9724
rtibia 6.25534
rfoot -18.869 -6.58295
rtoes -28.537
lfemur -24.4319 -10.3127 -19.7073
ltibia 9.43289
lfoot -8.47891 -0.227598
ltoes -26.8764
69
root 7.09895 16.2898 31.5972 -154.286 -0.70762 178.141
lowerback -28.4536 -1.29909 -6.69237
upperback -2.2935 -0.24886 -0.604476
thorax 13.2547 -0.798229 2.99984
lowerneck -5.4782 -3.37223 -1.97039
upperneck 8.19586 -5.19222 6.54298
head 3.93429 -2.4528 2.26924
rclavicle 8.94531e-016 -9.54166e-015
rhumerus -39.5941 -20.1205 -77.6945
rradius 34.5875
rwrist -3.19649
rhand -6.02555 -53.1013
rfingers 7.12502
rthumb 19.8078 -82.1119
lclavicle 8.94531e-016 -9.54166e-015
lhumerus -31.1981 9.29975 79.2802
lradius 23.6842
lwrist -3.05747
lhand -21.4659 -13.1473
lfingers 7.12502
lthumb 4.92448 16.7755
rfemur -22.9081 5.14928 20.9311
rtibia 6.08889
rfoot -18.7753 -6.58887
rtoes -28.3443
lfemur -24.3572 -10.2676 -19.7823
ltibia 9.51831
lfoot -8.53048 -0.360803
ltoes -26.6196
